<?xml version="1.0" encoding="UTF-8"?>
<!DOCTYPE svg PUBLIC
	  "-//W3C//DTD SVG 1.1 Tiny//EN"
	  "http://www.w3.org/Graphics/SVG/1.1/DTD/svg11-tiny.dtd">
<svg version="1.1"
     xmlns="http://www.w3.org/2000/svg"
     xmlns:xlink="http://www.w3.org/1999/xlink"
     viewBox="0 0 360 70"
	width="360" height="70">
  <!-- 	This SVG image was created July 29, 2007, based on some ASCII art in
	the following Wikipedia article:
		http://en.wikipedia.org/wiki/AA_tree
	Its purpose is to replace that ASCII art with something more
	polished looking, with the same meaning.

	It represents the various "shapes" which a "red-black tree"
	implementation needs to contend with, for contrast against the
	ones an "AA tree" faces.

	Permission is granted to copy, distribute and/or modify this
	document under the terms of the GNU Free Documentation License,
	Version 1.2 or any later version published by the Free Software
	Foundation; with no Invariant Sections, no Front-Cover Texts, and
	no Back-Cover Texts. A copy of the license is included in the
	section entitled "GNU Free Documentation License". -->
  <defs>
    <marker id="arrowhead"
	    viewBox="0 0 20 20" refX="20" refY="10"
	    markerUnits="strokeWidth"
	    markerWidth="8" markerHeight="6"
	    orient="auto">
	<path d="M 0 0 L 20 10 L 0 20 z" />
    </marker>
  </defs>
  <g fill="white" stroke="black">
    <g id="EgRight" transform="translate(15 15)">
	    <ellipse cx="0" cy="0" rx="6" ry="6"/>
	    <ellipse cx="15" cy="20" rx="6" ry="6"/>
	    <line x1="3.6" y1="4.8" x2="11.4" y2="15.2"
		marker-end="url(#arrowhead)"/>
    </g>
    <g id="EgLeft" transform="translate(75 15)">
	    <ellipse cx="0" cy="0" rx="6" ry="6"/>
	    <ellipse cx="-15" cy="20" rx="6" ry="6"/>
	    <line x1="-3.6" y1="4.8" x2="-11.4" y2="15.2"
		marker-end="url(#arrowhead)"/>
    </g>
    <g id="EgBoth" transform="translate(120 15)">
	    <ellipse cx="0" cy="0" rx="6" ry="6"/>
	    <ellipse cx="-15" cy="20" rx="6" ry="6"/>
	    <ellipse cx="15" cy="20" rx="6" ry="6"/>
	    <line x1="-3.6" y1="4.8" x2="-11.4" y2="15.2"
		marker-end="url(#arrowhead)"/>
	    <line x1="3.6" y1="4.8" x2="11.4" y2="15.2"
		marker-end="url(#arrowhead)"/>
    </g>
    <g id="EgRightLeft" transform="translate(165 15)">
	    <ellipse cx="0" cy="0" rx="6" ry="6"/>
	    <ellipse cx="15" cy="20" rx="6" ry="6"/>
	    <ellipse cx="0" cy="40" rx="6" ry="6"/>
	    <line x1="3.6" y1="4.8" x2="11.4" y2="15.2"
		marker-end="url(#arrowhead)"/>
	    <line x1="11.4" y1="24.8" x2="3.6" y2="35.2"
		marker-end="url(#arrowhead)"/>
    </g>
    <g id="EgLeftRight" transform="translate(225 15)">
	    <ellipse cx="0" cy="0" rx="6" ry="6"/>
	    <ellipse cx="-15" cy="20" rx="6" ry="6"/>
	    <ellipse cx="0" cy="40" rx="6" ry="6"/>
	    <line x1="-3.6" y1="4.8" x2="-11.4" y2="15.2"
		marker-end="url(#arrowhead)"/>
	    <line x1="-11.4" y1="24.8" x2="-3.6" y2="35.2"
		marker-end="url(#arrowhead)"/>
    </g>
    <g id="EgLeftLeft" transform="translate(285 15)">
	    <ellipse cx="0" cy="0" rx="6" ry="6"/>
	    <ellipse cx="-15" cy="20" rx="6" ry="6"/>
	    <ellipse cx="-30" cy="40" rx="6" ry="6"/>
	    <line x1="-3.6" y1="4.8" x2="-11.4" y2="15.2"
		marker-end="url(#arrowhead)"/>
	    <line x1="-18.6" y1="24.8" x2="-26.4" y2="35.2"
		marker-end="url(#arrowhead)"/>
    </g>
    <g id="EgRightRight" transform="translate(315 15)">
	    <ellipse cx="0" cy="0" rx="6" ry="6"/>
	    <ellipse cx="15" cy="20" rx="6" ry="6"/>
	    <ellipse cx="30" cy="40" rx="6" ry="6"/>
	    <line x1="3.6" y1="4.8" x2="11.4" y2="15.2"
		marker-end="url(#arrowhead)"/>
	    <line x1="18.6" y1="24.8" x2="26.4" y2="35.2"
		marker-end="url(#arrowhead)"/>
    </g>
  </g>
</svg>